<svg width="648" height="760" viewBox="0 0 648 760" fill="none" xmlns="http://www.w3.org/2000/svg">
<path d="M28.0078 783.319C13.3487 642.426 36.0334 507.826 96.0619 379.52C156.09 251.214 178.775 116.614 164.116 -24.2797" stroke="#3AA1FF" stroke-width="20"/>
<path d="M160 207.5C175.6 165.1 174.5 57.5 172 9V-3H650V760H33.5L29 711.5C29 652.333 38.9 514.1 78.5 434.5C128 335 140.5 260.5 160 207.5Z" fill="#3AA1FF"/>
<path d="M776.5 539.5L788.5 483.5M172 9C174.5 57.5 175.6 165.1 160 207.5C140.5 260.5 128 335 78.5 434.5C38.9 514.1 29 652.333 29 711.5L33.5 760H650V-3H172V9Z" stroke="#3AA1FF"/>
</svg>
